<svg xmlns="http://www.w3.org/2000/svg" fill="#000000" width="800px" height="800px" viewBox="0 0 24 24" id="dashboard-alt" data-name="Flat Line" class="icon flat-line"><path id="secondary" d="M3,9H21a0,0,0,0,1,0,0V20a1,1,0,0,1-1,1H4a1,1,0,0,1-1-1V9A0,0,0,0,1,3,9Z" style="fill: #0d1b2a; stroke-width: 2;"/><path id="primary" d="M3,9H21M15,9V20m6,0V4a1,1,0,0,0-1-1H4A1,1,0,0,0,3,4V20a1,1,0,0,0,1,1H20A1,1,0,0,0,21,20Z" style="fill:#0d1b2a; stroke: #f4f3ef; stroke-linecap: round; stroke-linejoin: round; stroke-width: 2;"/></svg>